<svg xmlns="http://www.w3.org/2000/svg" viewBox="0 0 64 64" role="img" aria-label="SOTA of EDA favicon">
  <defs>
    <linearGradient id="edge" x1="10" y1="8" x2="54" y2="56" gradientUnits="userSpaceOnUse">
      <stop stop-color="#F2C978"/>
      <stop offset="0.52" stop-color="#86D7BF"/>
      <stop offset="1" stop-color="#F8F1E7"/>
    </linearGradient>
  </defs>

  <rect x="7" y="7" width="50" height="50" rx="12" fill="url(#edge)"/>
  <rect x="13" y="13" width="38" height="38" rx="8" fill="#10151F"/>

  <g stroke="#86D7BF" stroke-width="3.2" stroke-linecap="round" opacity="0.9">
    <path d="M21 7v7M32 7v7M43 7v7M21 50v7M32 50v7M43 50v7"/>
    <path d="M7 21h7M7 32h7M7 43h7M50 21h7M50 32h7M50 43h7"/>
  </g>

  <g fill="none" stroke-linecap="round" stroke-linejoin="round">
    <path d="M23 25h9v7h10" stroke="#F8F1E7" stroke-width="4.2"/>
    <path d="M41 40h-9v-7H22" stroke="#F8F1E7" stroke-width="4.2"/>
    <path d="M29 45v-9h7V20" stroke="#F2C978" stroke-width="3.8"/>
  </g>
</svg>
